<svg width="460" height="460" viewBox="0 0 460 460" fill="none" xmlns="http://www.w3.org/2000/svg">
<circle cx="230" cy="230" r="230" fill="#C6E0FF"/>
<rect x="301" y="212" width="23" height="152" rx="7" fill="#256BD5"/>
<rect x="119.574" y="156.095" width="32.9389" height="205.319" rx="7" transform="rotate(8 119.574 156.095)" fill="#256BD5"/>
<rect x="94.209" y="336.583" width="32.9389" height="6.58777" transform="rotate(8 94.209 336.583)" fill="#C6E0FF"/>
<rect x="95.7363" y="325.71" width="32.9389" height="6.58777" transform="rotate(8 95.7363 325.71)" fill="#C6E0FF"/>
<rect x="155.635" y="97" width="61.4859" height="266.805" rx="7" fill="#256BD5"/>
<rect x="155.635" y="126.645" width="61.4859" height="9.88166" fill="#C6E0FF"/>
<rect x="155.635" y="157.388" width="61.4859" height="9.88166" fill="#C6E0FF"/>
<rect x="155.635" y="142.017" width="61.4859" height="9.88166" fill="#C6E0FF"/>
<circle cx="186.928" cy="332.513" r="13.7245" fill="#C6E0FF"/>
<rect x="228.1" y="97" width="61.4859" height="266.805" rx="7" fill="#256BD5"/>
<rect x="228.1" y="126.645" width="61.4859" height="9.88166" fill="#C6E0FF"/>
<rect x="228.1" y="157.388" width="61.4859" height="9.88166" fill="#C6E0FF"/>
<rect x="228.1" y="142.017" width="61.4859" height="9.88166" fill="#C6E0FF"/>
<circle cx="259.392" cy="332.513" r="13.7245" fill="#C6E0FF"/>
<rect x="324.688" y="192.019" width="26.7037" height="172.66" rx="7" transform="rotate(-6 324.688 192.019)" fill="#256BD5"/>
<circle cx="340.084" cy="213.763" r="7.68574" transform="rotate(-6 340.084 213.763)" fill="#C6E0FF"/>
</svg>
