<svg width="1694" height="2003" viewBox="0 0 1694 2003" fill="none" xmlns="http://www.w3.org/2000/svg">
<path d="M919.973 475.734C922.931 464.681 936.529 455.934 947.155 450.629C939.677 453.535 930.232 456.7 922.081 457.872C908.054 459.888 900.368 459.533 888.025 458.962L887.875 458.955C876.596 458.433 864.923 454.455 858.89 451.79C851.553 448.55 844.507 441.785 844.437 433.745C844.383 427.443 847.345 422.078 851.965 417.796C857.384 412.773 873.234 417.938 885.413 419.414C893.147 420.351 941.028 421.426 941.028 421.426C941.028 421.426 917.792 420.681 903.596 416.748C895.144 414.406 884.859 410.517 880.757 408.395C870.679 403.18 862.773 396.548 860.95 389.238C858.899 381.011 866.396 373.284 870.493 372.492C883.841 369.909 941.28 395.854 941.28 395.854L915.734 383.859C915.734 383.859 893.569 367.799 897.961 360.385C901.729 354.024 909.237 351.837 916.005 354.766C937.727 364.168 948.295 376.858 968.814 384.548C985.216 390.696 990.392 392.468 1007.9 393.184C1035.26 394.303 1076.25 377.406 1076.25 377.406C1076.25 377.406 1091.62 399.49 1095.5 415.829C1100.65 437.557 1091.11 472.872 1091.11 472.872C1091.11 472.872 1082.38 470.861 1076.88 471.792C1065.81 473.669 1062.26 479.278 1054.3 487.212C1050.04 491.453 1043.96 503.343 1035.43 512.997C1028.23 521.161 1023.84 530.14 1009.1 534.352C999.638 537.055 991.714 537.63 981.153 530.393C974.4 525.765 971.778 517.794 973.249 509.721C975.528 497.208 1000.28 503.664 999.825 490.956C999.461 480.819 991.703 474.448 981.813 472.304C972.83 470.356 963.416 471.311 959.42 479.616C955.643 487.464 967.16 492.26 966.039 500.898C964.967 509.156 962.492 515.401 955.092 519.193C947.516 523.075 940.965 522.773 934.463 517.288C917.898 503.314 915.65 491.888 919.973 475.734Z" fill="#E5D166"/>
<path d="M960.436 444.936C960.436 444.936 924.978 457.034 919.973 475.734C915.65 491.888 917.898 503.314 934.463 517.288C940.965 522.773 947.516 523.075 955.092 519.193C962.492 515.401 964.967 509.156 966.039 500.898C967.16 492.26 955.643 487.464 959.42 479.616C963.416 471.311 972.83 470.356 981.813 472.304C991.703 474.448 999.461 480.819 999.825 490.956C1000.28 503.664 975.528 497.208 973.249 509.721C971.778 517.794 974.4 525.765 981.153 530.393C991.714 537.63 999.638 537.055 1009.1 534.352C1023.84 530.14 1028.23 521.161 1035.43 512.997C1043.96 503.343 1050.04 491.453 1054.3 487.212C1062.26 479.278 1065.81 473.669 1076.88 471.792C1082.38 470.861 1091.11 472.872 1091.11 472.872C1091.11 472.872 1100.65 437.557 1095.5 415.829C1091.62 399.49 1076.25 377.406 1076.25 377.406C1076.25 377.406 1035.26 394.303 1007.9 393.184C990.392 392.468 985.216 390.696 968.814 384.548C948.295 376.858 937.727 364.168 916.005 354.766C909.237 351.837 901.729 354.024 897.961 360.385C893.569 367.799 915.734 383.859 915.734 383.859L941.28 395.854C941.28 395.854 883.841 369.909 870.493 372.492C866.396 373.284 858.899 381.011 860.95 389.238C862.773 396.548 870.679 403.18 880.757 408.395C884.859 410.517 895.144 414.406 903.596 416.748C917.792 420.681 941.028 421.426 941.028 421.426C941.028 421.426 893.147 420.351 885.413 419.414C873.234 417.938 857.384 412.773 851.965 417.796C847.345 422.078 844.383 427.443 844.437 433.745C844.507 441.785 851.553 448.55 858.89 451.79C864.923 454.455 876.596 458.433 887.875 458.955C900.306 459.53 907.997 459.897 922.081 457.872C938.6 455.497 960.436 444.936 960.436 444.936Z" stroke="black" stroke-width="10"/>
<rect x="4.33013" y="7.5" width="832" height="881.467" transform="matrix(0.866025 0.5 0 1 964.58 507.835)" fill="#DEFF99" stroke="black" stroke-width="10"/>
<path d="M1047.14 778.352C1066.51 737.031 1085.88 748.214 1105.25 811.902C1124.62 875.591 1143.99 886.774 1163.36 845.452C1182.73 804.131 1202.1 815.314 1221.47 879.002C1240.84 942.691 1260.21 953.874 1279.58 912.552C1298.95 871.231 1318.32 882.414 1337.69 946.102C1357.06 1009.79 1376.43 1020.97 1395.8 979.652C1415.17 938.331 1434.54 949.514 1453.91 1013.2C1473.28 1076.89 1492.65 1088.07 1512.02 1046.75C1531.39 1005.43 1550.76 1016.61 1570.13 1080.3C1589.5 1143.99 1608.87 1155.17 1628.24 1113.85" stroke="#BEE865" stroke-width="20"/>
<path d="M1047.14 1200.63C1066.51 1159.31 1085.88 1170.49 1105.25 1234.18C1124.62 1297.87 1143.99 1309.05 1163.36 1267.73C1182.73 1226.41 1202.1 1237.59 1221.47 1301.28C1240.84 1364.97 1260.21 1376.15 1279.58 1334.83C1298.95 1293.51 1318.32 1304.69 1337.69 1368.38C1357.06 1432.07 1376.43 1443.25 1395.8 1401.93C1415.17 1360.61 1434.54 1371.79 1453.91 1435.48C1473.28 1499.17 1492.65 1510.35 1512.02 1469.03C1531.39 1427.71 1550.76 1438.89 1570.13 1502.58C1589.5 1566.27 1608.87 1577.45 1628.24 1536.13" stroke="#BEE865" stroke-width="20"/>
<path d="M1047.14 989.49C1066.51 948.168 1085.88 959.352 1105.25 1023.04C1124.62 1086.73 1143.99 1097.91 1163.36 1056.59C1182.73 1015.27 1202.1 1026.45 1221.47 1090.14C1240.84 1153.83 1260.21 1165.01 1279.58 1123.69C1298.95 1082.37 1318.32 1093.55 1337.69 1157.24C1357.06 1220.93 1376.43 1232.11 1395.8 1190.79C1415.17 1149.47 1434.54 1160.65 1453.91 1224.34C1473.28 1288.03 1492.65 1299.21 1512.02 1257.89C1531.39 1216.57 1550.76 1227.75 1570.13 1291.44C1589.5 1355.13 1608.87 1366.31 1628.24 1324.99" stroke="#BEE865" stroke-width="20"/>
<rect x="4.33013" y="7.5" width="832" height="880.956" transform="matrix(0.866025 0.5 0 1 703.58 507.835)" fill="#A1FF99" stroke="black" stroke-width="10"/>
<path d="M786.139 778.226C805.509 736.935 824.879 748.118 844.249 811.776C863.619 875.434 882.989 886.618 902.359 845.326C921.729 804.035 941.099 815.218 960.47 878.876C979.84 942.534 999.21 953.718 1018.58 912.426C1037.95 871.135 1057.32 882.318 1076.69 945.976C1096.06 1009.63 1115.43 1020.82 1134.8 979.526C1154.17 938.235 1173.54 949.418 1192.91 1013.08C1212.28 1076.73 1231.65 1087.92 1251.02 1046.63C1270.39 1005.33 1289.76 1016.52 1309.13 1080.18C1328.5 1143.83 1347.87 1155.02 1367.24 1113.73" stroke="#7DE274" stroke-width="20"/>
<path d="M786.139 1200.26C805.509 1158.97 824.879 1170.15 844.249 1233.81C863.619 1297.47 882.989 1308.65 902.359 1267.36C921.729 1226.07 941.099 1237.25 960.47 1300.91C979.84 1364.57 999.21 1375.75 1018.58 1334.46C1037.95 1293.17 1057.32 1304.35 1076.69 1368.01C1096.06 1431.67 1115.43 1442.85 1134.8 1401.56C1154.17 1360.27 1173.54 1371.45 1192.91 1435.11C1212.28 1498.77 1231.65 1509.95 1251.02 1468.66C1270.39 1427.37 1289.76 1438.55 1309.13 1502.21C1328.5 1565.87 1347.87 1577.05 1367.24 1535.76" stroke="#7DE274" stroke-width="20"/>
<path d="M786.139 989.243C805.509 947.951 824.879 959.135 844.249 1022.79C863.619 1086.45 882.989 1097.63 902.359 1056.34C921.729 1015.05 941.099 1026.23 960.47 1089.89C979.84 1153.55 999.21 1164.73 1018.58 1123.44C1037.95 1082.15 1057.32 1093.33 1076.69 1156.99C1096.06 1220.65 1115.43 1231.83 1134.8 1190.54C1154.17 1149.25 1173.54 1160.43 1192.91 1224.09C1212.28 1287.75 1231.65 1298.93 1251.02 1257.64C1270.39 1216.35 1289.76 1227.53 1309.13 1291.19C1328.5 1354.85 1347.87 1366.03 1367.24 1324.74" stroke="#7DE274" stroke-width="20"/>
<rect x="4.33013" y="7.5" width="832" height="879.657" transform="matrix(0.866025 0.5 0 1 438.58 507.835)" fill="#4FDDAA" stroke="black" stroke-width="10"/>
<path d="M521.139 777.905C540.509 736.69 559.879 747.874 579.249 811.455C598.619 875.037 617.989 886.22 637.359 845.005C656.729 803.79 676.099 814.974 695.47 878.555C714.84 942.137 734.21 953.32 753.58 912.105C772.95 870.89 792.32 882.074 811.69 945.655C831.06 1009.24 850.43 1020.42 869.8 979.205C889.171 937.99 908.541 949.174 927.911 1012.76C947.281 1076.34 966.651 1087.52 986.021 1046.31C1005.39 1005.09 1024.76 1016.27 1044.13 1079.86C1063.5 1143.44 1082.87 1154.62 1102.24 1113.41" stroke="#2DC08B" stroke-width="20"/>
<path d="M521.139 1199.32C540.509 1158.11 559.879 1169.29 579.249 1232.87C598.619 1296.45 617.989 1307.64 637.359 1266.42C656.729 1225.21 676.099 1236.39 695.47 1299.97C714.84 1363.55 734.21 1374.74 753.58 1333.52C772.95 1292.31 792.32 1303.49 811.69 1367.07C831.06 1430.65 850.43 1441.84 869.8 1400.62C889.171 1359.41 908.541 1370.59 927.911 1434.17C947.281 1497.75 966.651 1508.94 986.021 1467.72C1005.39 1426.51 1024.76 1437.69 1044.13 1501.27C1063.5 1564.85 1082.87 1576.04 1102.24 1534.82" stroke="#2DC08B" stroke-width="20"/>
<path d="M521.139 988.614C540.509 947.399 559.879 958.583 579.249 1022.16C598.619 1085.75 617.989 1096.93 637.359 1055.71C656.729 1014.5 676.099 1025.68 695.47 1089.26C714.84 1152.85 734.21 1164.03 753.58 1122.81C772.95 1081.6 792.32 1092.78 811.69 1156.36C831.06 1219.95 850.43 1231.13 869.8 1189.91C889.171 1148.7 908.541 1159.88 927.911 1223.46C947.281 1287.05 966.651 1298.23 986.021 1257.01C1005.39 1215.8 1024.76 1226.98 1044.13 1290.56C1063.5 1354.15 1082.87 1365.33 1102.24 1324.11" stroke="#2DC08B" stroke-width="20"/>
<path fill-rule="evenodd" clip-rule="evenodd" d="M882.417 506L168.812 94V320V430L264.075 375L882.417 732V506Z" fill="#6070FE"/>
<path d="M168.812 94V89L164.482 86.5V91.5L168.812 94ZM882.417 506L886.748 508.5V503.5L882.417 501V506ZM168.812 430L164.482 427.5V439.571L171.874 435.303L168.812 430ZM264.075 375V370L262.282 368.964L261.013 369.697L264.075 375ZM882.417 732V737L886.748 739.5V734.5L882.417 732ZM168.812 99L882.417 511V501L168.812 89V99ZM173.143 322.5V96.5L164.482 91.5V317.5L173.143 322.5ZM173.143 432.5V322.5L164.482 317.5V427.5L173.143 432.5ZM261.013 369.697L165.751 424.697L171.874 435.303L267.137 380.303L261.013 369.697ZM882.417 727L264.075 370V380L882.417 737V727ZM878.087 503.5V729.5L886.748 734.5V508.5L878.087 503.5Z" fill="black"/>
<rect width="749" height="32" transform="matrix(0.866025 0.5 0 1 200.855 171.5)" fill="white"/>
<rect width="513" height="32" transform="matrix(0.866025 0.5 0 1 200.855 245.5)" fill="white"/>
<circle cx="33" cy="33" r="28" transform="matrix(0.866025 0.5 0 1 34.5791 16.5)" fill="#6070FE" stroke="black" stroke-width="10"/>
<path d="M49.3013 107L76.1481 122.5C97.6712 134.926 115.119 165.147 115.119 190V197L10.3301 136.5V129.5C10.3301 104.647 27.7781 94.5736 49.3013 107Z" fill="#6070FE" stroke="black" stroke-width="10"/>
<path fill-rule="evenodd" clip-rule="evenodd" d="M882.48 920.5L168.875 508.5V999.5V1109.5L264.138 1054.5L882.48 1411.5V920.5Z" fill="#229F90"/>
<path d="M168.875 508.5V503.5L164.545 501V506L168.875 508.5ZM882.48 920.5L886.81 923V918L882.48 915.5V920.5ZM168.875 1109.5L164.545 1107V1119.07L171.937 1114.8L168.875 1109.5ZM264.138 1054.5V1049.5L262.344 1048.46L261.076 1049.2L264.138 1054.5ZM882.48 1411.5V1416.5L886.81 1419V1414L882.48 1411.5ZM168.875 513.5L882.48 925.5V915.5L168.875 503.5V513.5ZM173.205 1002V511L164.545 506V997L173.205 1002ZM173.205 1112V1002L164.545 997V1107L173.205 1112ZM261.076 1049.2L165.813 1104.2L171.937 1114.8L267.2 1059.8L261.076 1049.2ZM882.48 1406.5L264.138 1049.5V1059.5L882.48 1416.5V1406.5ZM878.15 918V1409L886.81 1414V923L878.15 918Z" fill="black"/>
<rect width="749" height="32" transform="matrix(0.866025 0.5 0 1 200.918 596)" fill="white"/>
<rect width="749" height="32" transform="matrix(0.866025 0.5 0 1 200.918 675)" fill="white"/>
<rect width="749" height="32" transform="matrix(0.866025 0.5 0 1 200.918 754)" fill="white"/>
<rect width="749" height="32" transform="matrix(0.866025 0.5 0 1 200.918 833)" fill="white"/>
<rect width="225" height="32" transform="matrix(0.866025 0.5 0 1 200.918 912)" fill="white"/>
<mask id="path-28-inside-1_305_307" fill="white">
<path fill-rule="evenodd" clip-rule="evenodd" d="M34.5763 446.353C37.4274 447.068 39.5165 445.248 39.5165 441.658C39.5165 437.326 36.4756 432.059 32.7245 429.894C28.9734 427.728 25.9326 429.483 25.9326 433.815C25.9326 437.405 28.0211 441.637 30.8716 444.214V451.638L17.0304 443.647C7.62476 438.217 0 442.683 0 453.623V506.692C0 517.632 7.62474 530.903 17.0304 536.333L17.2892 536.483V562.149L44.3487 552.105L107.695 588.678C117.1 594.109 124.725 589.642 124.725 578.702V525.633C124.725 514.693 117.1 501.422 107.695 495.992L93.8517 488V480.576C96.7028 481.291 98.7919 479.47 98.7919 475.88C98.7919 471.549 95.751 466.282 91.9999 464.116C88.2488 461.95 85.2079 463.706 85.2079 468.038C85.2079 471.627 87.2965 475.859 90.147 478.436V485.861L34.5763 453.777V446.353Z"/>
</mask>
<path fill-rule="evenodd" clip-rule="evenodd" d="M34.5763 446.353C37.4274 447.068 39.5165 445.248 39.5165 441.658C39.5165 437.326 36.4756 432.059 32.7245 429.894C28.9734 427.728 25.9326 429.483 25.9326 433.815C25.9326 437.405 28.0211 441.637 30.8716 444.214V451.638L17.0304 443.647C7.62476 438.217 0 442.683 0 453.623V506.692C0 517.632 7.62474 530.903 17.0304 536.333L17.2892 536.483V562.149L44.3487 552.105L107.695 588.678C117.1 594.109 124.725 589.642 124.725 578.702V525.633C124.725 514.693 117.1 501.422 107.695 495.992L93.8517 488V480.576C96.7028 481.291 98.7919 479.47 98.7919 475.88C98.7919 471.549 95.751 466.282 91.9999 464.116C88.2488 461.95 85.2079 463.706 85.2079 468.038C85.2079 471.627 87.2965 475.859 90.147 478.436V485.861L34.5763 453.777V446.353Z" fill="#229F90"/>
<path d="M34.5763 446.353L32.2201 435.37L25.9161 433.788V441.353L34.5763 446.353ZM30.8716 444.214L39.5319 449.214V441.65L33.2293 435.953L30.8716 444.214ZM30.8716 451.638V461.638L39.5319 466.638V456.638L30.8716 451.638ZM17.2892 536.483L25.9495 541.483V531.483L17.2892 526.483V536.483ZM17.2892 562.149L8.62896 557.149V578.304L22.7862 573.05L17.2892 562.149ZM44.3487 552.105V542.105L41.2479 540.315L38.8517 541.205L44.3487 552.105ZM93.8517 488L85.1914 483V493L93.8517 498V488ZM93.8517 480.576L91.4954 469.592L85.1914 468.011V475.576L93.8517 480.576ZM90.147 478.436L98.8072 483.436V475.873L92.5047 470.175L90.147 478.436ZM90.147 485.861V495.861L98.8072 500.861V490.861L90.147 485.861ZM34.5763 453.777L25.9161 448.777V458.777L34.5763 463.777V453.777ZM30.8562 436.658C30.8562 435.656 31.4404 435.174 32.2201 435.37L36.9326 457.336C43.4144 458.962 48.1767 454.84 48.1767 446.658L30.8562 436.658ZM32.7245 439.894C31.6927 439.298 30.8562 437.849 30.8562 436.658L48.1767 446.658C48.1767 436.803 41.2585 424.821 32.7245 419.894V439.894ZM34.5928 438.815C34.5928 440.006 33.7563 440.489 32.7245 439.894V419.894C24.1905 414.966 17.2723 418.961 17.2723 428.815L34.5928 438.815ZM33.2293 435.953C34.0088 436.657 34.5928 437.813 34.5928 438.815L17.2723 428.815C17.2723 436.996 22.0334 446.616 28.5139 452.475L33.2293 435.953ZM39.5319 456.638V449.214L22.2114 439.214V446.638L39.5319 456.638ZM17.0304 453.647L30.8716 461.638V441.638L17.0304 433.647V453.647ZM8.66025 458.623C8.66025 453.137 12.4671 451.012 17.0304 453.647V433.647C2.78241 425.421 -8.66025 432.229 -8.66025 448.623L8.66025 458.623ZM8.66025 511.692V458.623L-8.66025 448.623V501.692L8.66025 511.692ZM17.0304 526.333C12.4671 523.699 8.66025 517.178 8.66025 511.692L-8.66025 501.692C-8.66025 518.086 2.78238 538.107 17.0304 546.333V526.333ZM17.2892 526.483L17.0304 526.333V546.333L17.2892 546.483V526.483ZM25.9495 567.149V541.483L8.62896 531.483V557.149L25.9495 567.149ZM38.8517 541.205L11.7922 551.248L22.7862 573.05L49.8458 563.006L38.8517 541.205ZM107.695 578.678L44.3487 542.105V562.105L107.695 598.678V578.678ZM116.065 573.702C116.065 579.188 112.258 581.313 107.695 578.678V598.678C121.943 606.904 133.385 600.096 133.385 583.702L116.065 573.702ZM116.065 520.633V573.702L133.385 583.702V530.633L116.065 520.633ZM107.695 505.992C112.258 508.627 116.065 515.147 116.065 520.633L133.385 530.633C133.385 514.239 121.943 494.218 107.695 485.992V505.992ZM93.8517 498L107.695 505.992V485.992L93.8517 478V498ZM102.512 493V485.576L85.1914 475.576V483L102.512 493ZM96.208 491.559C102.69 493.185 107.452 489.062 107.452 480.88L90.1316 470.88C90.1316 469.878 90.7157 469.397 91.4954 469.592L96.208 491.559ZM107.452 480.88C107.452 471.026 100.534 459.043 91.9999 454.116V474.116C90.9681 473.52 90.1316 472.072 90.1316 470.88L107.452 480.88ZM91.9999 454.116C83.4659 449.189 76.5477 453.183 76.5477 463.038L93.8682 473.038C93.8682 474.229 93.0317 474.712 91.9999 474.116V454.116ZM76.5477 463.038C76.5477 471.219 81.3088 480.839 87.7893 486.697L92.5047 470.175C93.2842 470.88 93.8682 472.036 93.8682 473.038L76.5477 463.038ZM81.4867 473.436V480.861L98.8072 490.861V483.436L81.4867 473.436ZM34.5763 463.777L90.147 495.861V475.861L34.5763 443.777V463.777ZM25.9161 441.353V448.777L43.2366 458.777V451.353L25.9161 441.353Z" fill="black" mask="url(#path-28-inside-1_305_307)"/>
<path d="M39.5168 502.973C39.5168 509.667 34.8173 512.381 29.0201 509.034C23.223 505.687 18.5234 497.547 18.5234 490.853C18.5234 484.159 23.223 481.446 29.0201 484.793C34.8173 488.14 39.5168 496.279 39.5168 502.973Z" fill="#B0E7D3"/>
<path d="M72.8586 522.223C72.8586 528.917 68.1591 531.631 62.3619 528.284C56.5648 524.937 51.8652 516.797 51.8652 510.103C51.8652 503.409 56.5648 500.696 62.3619 504.043C68.1591 507.39 72.8586 515.529 72.8586 522.223Z" fill="#B0E7D3"/>
<path d="M106.202 541.474C106.202 548.168 101.503 550.882 95.7057 547.535C89.9085 544.188 85.209 536.048 85.209 529.354C85.209 522.66 89.9085 519.947 95.7057 523.294C101.503 526.641 106.202 534.78 106.202 541.474Z" fill="#B0E7D3"/>
<path d="M1486.42 1797.89C1492.91 1807.32 1490.74 1823.34 1487.87 1834.86C1490.52 1827.29 1494.24 1818.05 1498.64 1811.09C1506.21 1799.11 1511.47 1793.49 1519.92 1784.48L1520.02 1784.37C1527.74 1776.13 1538.34 1769.83 1544.29 1766.97C1551.51 1763.49 1561.23 1762.52 1567.39 1767.69C1572.22 1771.74 1574.38 1777.47 1574.64 1783.77C1574.94 1791.15 1560.73 1799.85 1551.7 1808.16C1545.96 1813.44 1514.07 1849.16 1514.07 1849.16C1514.07 1849.16 1529.72 1831.97 1541.92 1823.72C1549.19 1818.81 1558.82 1813.51 1563.1 1811.77C1573.61 1807.49 1583.79 1805.78 1590.53 1809.14C1598.12 1812.92 1599.13 1823.64 1597.08 1827.27C1590.37 1839.1 1533.36 1865.95 1533.36 1865.95L1559.06 1854.3C1559.06 1854.3 1585.67 1847.87 1588.45 1856.02C1590.85 1863.02 1587.64 1870.15 1581.02 1873.4C1559.76 1883.82 1543.25 1883.62 1524.08 1894.23C1508.76 1902.72 1504.05 1905.51 1492.14 1918.36C1473.53 1938.44 1459.77 1980.6 1459.77 1980.6C1459.77 1980.6 1433 1977.95 1418.06 1970.29C1398.18 1960.11 1377.51 1929.93 1377.51 1929.93C1377.51 1929.93 1384.71 1924.59 1387.57 1919.81C1393.32 1910.17 1391.36 1903.83 1390.5 1892.62C1390.04 1886.63 1384.94 1874.28 1383.13 1861.53C1381.6 1850.75 1377.61 1841.59 1383.98 1827.64C1388.06 1818.69 1392.77 1812.29 1405.13 1808.95C1413.03 1806.82 1420.8 1810 1425.99 1816.36C1434.02 1826.21 1413.05 1840.85 1423.01 1848.75C1430.96 1855.06 1440.84 1853.29 1448.89 1847.16C1456.2 1841.59 1461.59 1833.81 1457.86 1825.38C1454.34 1817.41 1443.22 1823.06 1437.38 1816.6C1431.79 1810.42 1428.65 1804.49 1430.57 1796.4C1432.53 1788.11 1437.01 1783.33 1445.41 1781.94C1466.79 1778.41 1476.94 1784.12 1486.42 1797.89Z" fill="#F3E0D8"/>
<path d="M1483.58 1848.66C1483.58 1848.66 1497.4 1813.84 1486.42 1797.89C1476.94 1784.12 1466.79 1778.41 1445.41 1781.94C1437.01 1783.33 1432.53 1788.11 1430.57 1796.4C1428.65 1804.49 1431.79 1810.42 1437.38 1816.6C1443.22 1823.06 1454.34 1817.41 1457.86 1825.38C1461.59 1833.81 1456.2 1841.59 1448.89 1847.16C1440.84 1853.29 1430.96 1855.06 1423.01 1848.75C1413.05 1840.85 1434.02 1826.21 1425.99 1816.36C1420.8 1810 1413.03 1806.82 1405.13 1808.95C1392.77 1812.29 1388.06 1818.69 1383.98 1827.64C1377.61 1841.59 1381.6 1850.75 1383.13 1861.53C1384.94 1874.28 1390.04 1886.63 1390.5 1892.62C1391.36 1903.83 1393.32 1910.17 1387.57 1919.81C1384.71 1924.59 1377.51 1929.93 1377.51 1929.93C1377.51 1929.93 1398.18 1960.11 1418.06 1970.29C1433 1977.95 1459.77 1980.6 1459.77 1980.6C1459.77 1980.6 1473.53 1938.44 1492.14 1918.36C1504.05 1905.51 1508.76 1902.72 1524.08 1894.23C1543.25 1883.62 1559.76 1883.82 1581.02 1873.4C1587.64 1870.15 1590.85 1863.02 1588.45 1856.02C1585.67 1847.87 1559.06 1854.3 1559.06 1854.3L1533.36 1865.95C1533.36 1865.95 1590.37 1839.1 1597.08 1827.27C1599.13 1823.64 1598.12 1812.92 1590.53 1809.14C1583.79 1805.78 1573.61 1807.49 1563.1 1811.77C1558.82 1813.51 1549.19 1818.81 1541.92 1823.72C1529.72 1831.97 1514.07 1849.16 1514.07 1849.16C1514.07 1849.16 1545.96 1813.44 1551.7 1808.16C1560.73 1799.85 1574.94 1791.15 1574.64 1783.77C1574.38 1777.47 1572.22 1771.74 1567.39 1767.69C1561.23 1762.52 1551.51 1763.49 1544.29 1766.97C1538.34 1769.83 1527.74 1776.13 1520.02 1784.37C1511.51 1793.45 1506.24 1799.06 1498.64 1811.09C1489.73 1825.2 1483.58 1848.66 1483.58 1848.66Z" stroke="black" stroke-width="10"/>
<path d="M382.297 1373.49C374.213 1381.59 373.457 1397.74 374.191 1409.59C372.958 1401.66 370.964 1391.9 367.895 1384.26C362.612 1371.11 358.453 1364.64 351.774 1354.24L351.693 1354.12C345.59 1344.62 336.299 1336.51 330.97 1332.62C324.489 1327.9 315.105 1325.19 308.112 1329.16C302.63 1332.27 299.472 1337.52 298.081 1343.66C296.449 1350.87 308.861 1362 316.24 1371.8C320.926 1378.02 345.848 1418.92 345.848 1418.92C345.848 1418.92 333.56 1399.18 323.043 1388.87C316.782 1382.73 308.263 1375.78 304.371 1373.29C294.809 1367.18 285.108 1363.66 277.868 1365.75C269.721 1368.09 266.79 1378.45 268.157 1382.4C272.611 1395.24 323.843 1431.95 323.843 1431.95L300.662 1415.85C300.662 1415.85 275.659 1404.72 271.443 1412.23C267.826 1418.68 269.695 1426.27 275.621 1430.66C294.641 1444.75 310.919 1447.54 327.855 1461.44C341.393 1472.56 345.52 1476.15 354.91 1490.94C369.588 1514.06 375.506 1558 375.506 1558C375.506 1558 402.318 1560.24 418.399 1555.4C439.785 1548.98 465.567 1523.02 465.567 1523.02C465.567 1523.02 459.452 1516.48 457.505 1511.25C453.584 1500.74 456.658 1494.85 459.532 1483.98C461.069 1478.17 468.312 1466.95 472.397 1454.74C475.852 1444.41 481.425 1436.12 477.683 1421.25C475.282 1411.71 471.808 1404.56 460.254 1399.05C452.865 1395.52 444.653 1397.25 438.403 1402.56C428.717 1410.81 446.706 1428.99 435.48 1434.97C426.525 1439.73 417.124 1436.21 410.313 1428.72C404.127 1421.93 400.237 1413.3 405.421 1405.68C410.321 1398.48 420.242 1406.04 427.156 1400.74C433.765 1395.68 437.93 1390.41 437.504 1382.1C437.067 1373.6 433.523 1368.09 425.519 1365.21C405.126 1357.87 394.111 1361.65 382.297 1373.49Z" fill="#93745E"/>
<path d="M375.918 1423.94C375.918 1423.94 368.621 1387.19 382.297 1373.49C394.111 1361.65 405.126 1357.87 425.519 1365.21C433.523 1368.09 437.067 1373.6 437.504 1382.1C437.93 1390.41 433.765 1395.68 427.156 1400.74C420.242 1406.04 410.321 1398.48 405.421 1405.68C400.237 1413.3 404.127 1421.93 410.313 1428.72C417.124 1436.21 426.525 1439.73 435.48 1434.97C446.706 1428.99 428.717 1410.81 438.403 1402.56C444.653 1397.25 452.865 1395.52 460.254 1399.05C471.808 1404.56 475.282 1411.71 477.683 1421.25C481.425 1436.12 475.852 1444.41 472.397 1454.74C468.312 1466.95 461.069 1478.17 459.532 1483.98C456.658 1494.85 453.584 1500.74 457.505 1511.25C459.452 1516.48 465.567 1523.02 465.567 1523.02C465.567 1523.02 439.785 1548.98 418.399 1555.4C402.318 1560.24 375.506 1558 375.506 1558C375.506 1558 369.588 1514.06 354.91 1490.94C345.52 1476.15 341.393 1472.56 327.855 1461.44C310.919 1447.54 294.641 1444.75 275.621 1430.66C269.695 1426.27 267.826 1418.68 271.443 1412.23C275.659 1404.72 300.662 1415.85 300.662 1415.85L323.843 1431.95C323.843 1431.95 272.611 1395.24 268.157 1382.4C266.79 1378.45 269.721 1368.09 277.868 1365.75C285.108 1363.66 294.809 1367.18 304.371 1373.29C308.263 1375.78 316.782 1382.73 323.043 1388.87C333.56 1399.18 345.848 1418.92 345.848 1418.92C345.848 1418.92 320.926 1378.02 316.24 1371.8C308.861 1362 296.449 1350.87 298.081 1343.66C299.472 1337.52 302.63 1332.27 308.112 1329.16C315.105 1325.19 324.489 1327.9 330.97 1332.62C336.299 1336.51 345.59 1344.62 351.693 1354.12C358.419 1364.59 362.59 1371.06 367.895 1384.26C374.116 1399.75 375.918 1423.94 375.918 1423.94Z" stroke="black" stroke-width="10"/>
</svg>
