<svg width="544" height="544" viewBox="0 0 544 544" fill="none" xmlns="http://www.w3.org/2000/svg">
<circle cx="272" cy="272" r="272" fill="#B0E7D3"/>
<circle cx="272" cy="272" r="173" fill="#229F90"/>
<path d="M291.425 182L288.013 306.455H255.989L252.489 182H291.425ZM272.001 362C266.226 362 261.268 359.975 257.126 355.925C252.984 351.817 250.943 346.899 251.001 341.171C250.943 335.501 252.984 330.64 257.126 326.59C261.268 322.54 266.226 320.515 272.001 320.515C277.542 320.515 282.413 322.54 286.613 326.59C290.813 330.64 292.942 335.501 293 341.171C292.942 344.989 291.921 348.49 289.938 351.672C288.013 354.797 285.475 357.313 282.325 359.223C279.175 361.074 275.734 362 272.001 362Z" fill="#B0E7D3"/>
</svg>
