<svg width="415" height="415" viewBox="0 0 415 415" fill="none" xmlns="http://www.w3.org/2000/svg">
<circle cx="207.5" cy="207.5" r="207.5" fill="#B0E7D3"/>
<rect x="182" y="249" width="97" height="23" rx="11.5" fill="#229F90"/>
<path d="M90 239C90 239 116.669 291 143.495 291C170.321 291 265 291 265 291" stroke="#229F90" stroke-width="30" stroke-linecap="round"/>
<path d="M346.5 327H250.5C250.5 327 251.5 320.5 237 312C226.211 305.676 195.5 305.5 195.5 305.5L240.5 286.5V248.998H269C286.5 248.998 304.5 268.5 317.5 286.5C325.806 298 346.5 327 346.5 327Z" fill="#229F90"/>
<circle cx="207" cy="147" r="83" fill="#229F90"/>
<path d="M197.661 192V128.148H215.257V192H197.661ZM206.5 119.917C203.884 119.917 201.64 119.044 199.767 117.298C197.922 115.524 197 113.404 197 110.938C197 108.499 197.922 106.406 199.767 104.661C201.64 102.887 203.884 102 206.5 102C209.116 102 211.346 102.887 213.191 104.661C215.064 106.406 216 108.499 216 110.938C216 113.404 215.064 115.524 213.191 117.298C211.346 119.044 209.116 119.917 206.5 119.917Z" fill="#B0E7D3"/>
</svg>
