<svg width="544" height="544" viewBox="0 0 544 544" fill="none" xmlns="http://www.w3.org/2000/svg">
<circle cx="272" cy="272" r="272" fill="#B0E7D3"/>
<path fill-rule="evenodd" clip-rule="evenodd" d="M272 395C339.931 395 395 339.931 395 272C395 204.069 339.931 149 272 149C204.069 149 149 204.069 149 272C149 339.931 204.069 395 272 395ZM272 445C367.545 445 445 367.545 445 272C445 176.455 367.545 99 272 99C176.455 99 99 176.455 99 272C99 367.545 176.455 445 272 445Z" fill="#229F90"/>
<rect x="164" y="191.577" width="39" height="266" transform="rotate(-45 164 191.577)" fill="#229F90"/>
</svg>
