<svg width="415" height="415" viewBox="0 0 415 415" fill="none" xmlns="http://www.w3.org/2000/svg">
<circle cx="207.5" cy="207.5" r="207.5" fill="#B0E7D3"/>
<rect x="106" y="68" width="179" height="223" rx="11" fill="#229F90"/>
<rect x="124" y="97" width="144" height="16" fill="#B0E7D3"/>
<rect x="124" y="180" width="144" height="15" fill="#B0E7D3"/>
<rect x="124" y="138" width="144" height="16" fill="#B0E7D3"/>
<rect x="124" y="221" width="54" height="16" fill="#B0E7D3"/>
<path d="M358 292.5C358 334.198 324.198 368 282.5 368C240.803 368 207 334.198 207 292.5C207 250.803 240.803 217 282.5 217C324.198 217 358 250.803 358 292.5Z" fill="#229F90"/>
<path fill-rule="evenodd" clip-rule="evenodd" d="M282.5 354.355C316.662 354.355 344.355 326.662 344.355 292.5C344.355 258.338 316.662 230.645 282.5 230.645C248.338 230.645 220.645 258.338 220.645 292.5C220.645 326.662 248.338 354.355 282.5 354.355ZM282.5 368C324.198 368 358 334.198 358 292.5C358 250.803 324.198 217 282.5 217C240.803 217 207 250.803 207 292.5C207 334.198 240.803 368 282.5 368Z" fill="#B0E7D3"/>
<path d="M273.626 333V275.533H290.296V333H273.626ZM282 268.125C279.522 268.125 277.396 267.339 275.622 265.768C273.874 264.172 273 262.264 273 260.044C273 257.849 273.874 255.966 275.622 254.394C277.396 252.798 279.522 252 282 252C284.478 252 286.591 252.798 288.339 254.394C290.113 255.966 291 257.849 291 260.044C291 262.264 290.113 264.172 288.339 265.768C286.591 267.339 284.478 268.125 282 268.125Z" fill="#B0E7D3"/>
</svg>
